<?xml version="1.0" encoding="UTF-8"?>
<svg version="1.1" xmlns="http://www.w3.org/2000/svg" width="160" height="160">
<path d="M0 0 C0.87269531 -0.04060547 1.74539062 -0.08121094 2.64453125 -0.12304688 C6.46749791 -0.14316775 9.09300639 -0.08975489 12.21191406 2.25927734 C14.0703125 4.16796875 14.0703125 4.16796875 15.65673828 6.08276367 C17.13686607 7.96170893 17.13686607 7.96170893 20.125 8.6875 C21.74504233 10.40879497 23.16375786 12.23675478 24.625 14.09375 C26.14016837 15.95594491 26.14016837 15.95594491 29.125 16.6875 C30.135625 16.048125 31.14625 15.40875 32.1875 14.75 C37.36769421 11.59161155 42.73713715 12.04167154 48.54296875 13.1484375 C50.41795692 13.60639921 52.27441791 14.13917938 54.125 14.6875 C54.38104004 14.13497559 54.63708008 13.58245117 54.90087891 13.01318359 C57.62710236 7.83368527 60.69295345 3.24951262 66.125 0.6875 C74.16056533 -1.0045071 82.60189867 -0.25102503 90.75 0.0625 C93.01682899 0.11271559 95.28376478 0.1583333 97.55078125 0.19921875 C103.07786866 0.30885964 108.60093415 0.47568987 114.125 0.6875 C114.91775148 2.1035599 115.70915312 3.52037553 116.5 4.9375 C116.94085938 5.72640625 117.38171875 6.5153125 117.8359375 7.328125 C118.26132813 8.10671875 118.68671875 8.8853125 119.125 9.6875 C119.50548996 10.35965042 119.88597992 11.03180084 120.27799988 11.72431946 C122.83942456 17.66120064 120.92061582 25.83941494 120.29296875 32.11328125 C120.13186155 33.89764254 119.97240767 35.68215374 119.81445312 37.46679688 C119.56783812 40.23295032 119.31282147 42.99686486 119.02954102 45.75952148 C117.50572502 59.93483765 117.50572502 59.93483765 121.8918457 73.30151367 C124.45681062 78.26437294 124.30682841 83.23264771 124.125 88.6875 C123.795 89.0175 123.465 89.3475 123.125 89.6875 C122.95661896 91.54441063 122.84855712 93.4068473 122.765625 95.26953125 C122.70117188 96.43033203 122.63671875 97.59113281 122.5703125 98.78710938 C122.44239945 101.21873647 122.3273258 103.651081 122.2265625 106.08398438 C121.72718423 114.5133047 119.86590126 121.13111117 116.125 128.6875 C115.57714844 129.81027344 115.02929688 130.93304688 114.46484375 132.08984375 C113.77068359 133.34474609 113.77068359 133.34474609 113.0625 134.625 C112.59714844 135.47964844 112.13179687 136.33429688 111.65234375 137.21484375 C109.99971181 139.8903323 108.1345085 142.27176828 106.125 144.6875 C106.97964844 145.50734375 107.83429688 146.3271875 108.71484375 147.171875 C109.83112302 148.26001277 110.94698686 149.34857684 112.0625 150.4375 C112.62646484 150.97632813 113.19042969 151.51515625 113.77148438 152.0703125 C114.30966797 152.59882813 114.84785156 153.12734375 115.40234375 153.671875 C116.14859009 154.39455566 116.14859009 154.39455566 116.90991211 155.13183594 C118.125 156.6875 118.125 156.6875 119.125 160.6875 C80.845 160.6875 42.565 160.6875 3.125 160.6875 C4.125 152.6875 4.125 152.6875 6.125 149.6875 C5.465 149.3575 4.805 149.0275 4.125 148.6875 C3.83625 147.759375 3.5475 146.83125 3.25 145.875 C2.04932771 142.47309517 0.71387864 141.10378673 -1.875 138.6875 C-1.875 138.0275 -1.875 137.3675 -1.875 136.6875 C-2.535 136.6875 -3.195 136.6875 -3.875 136.6875 C-9.42534195 130.33469897 -11.50194215 122.11295564 -13.69433594 114.17285156 C-14.88493143 109.87488628 -16.20373688 105.8589938 -18.01953125 101.78125 C-20.29394367 96.23263586 -20.52313837 91.13331894 -20.4375 85.1875 C-20.43161865 84.1452124 -20.4257373 83.1029248 -20.41967773 82.02905273 C-20.22294576 73.76567729 -18.70252626 66.45903494 -16.06640625 58.66015625 C-13.66929846 51.1521986 -13.62013484 45.85173082 -16.14990234 38.39648438 C-17.51024885 33.31419319 -17.26536411 28.16373924 -17.1875 22.9375 C-17.19072266 21.84050781 -17.19394531 20.74351563 -17.19726562 19.61328125 C-17.11510598 7.28933516 -17.11510598 7.28933516 -12.8671875 2.35546875 C-8.57646092 -0.03635925 -4.83935827 -0.01062817 0 0 Z " fill="#003757" transform="translate(19.875,-0.6875)"/>
<path d="M0 0 C2.20344941 0.02244435 4.39347283 -0.04048635 6.59570312 -0.11035156 C16.75431757 -0.21568815 16.75431757 -0.21568815 20.47070312 2.95605469 C22.0338655 5.2666515 23.15592553 7.44293286 24.20507812 10.02246094 C24.57342773 10.7132373 24.94177734 11.40401367 25.32128906 12.11572266 C29.95996421 22.12347208 25.61722267 40.42791362 24.74023438 51.05371094 C24.65660645 52.07070068 24.57297852 53.08769043 24.48681641 54.13549805 C24.22905867 56.77673305 23.84916887 59.37239822 23.45117188 61.99511719 C22.99635758 65.95651837 23.78579999 67.71445612 26.20507812 70.95996094 C31.74155935 80.84379462 29.12597217 93.15956348 28.20507812 104.02246094 C28.15391846 104.96444336 28.10275879 105.90642578 28.05004883 106.87695312 C27.61630875 113.48644234 26.02030661 116.48839238 21.33398438 121.23339844 C18.70309439 123.44431149 16.623823 124.55626845 13.20507812 125.02246094 C10.83007813 124.64746094 10.83007813 124.64746094 9.20507812 124.02246094 C9.10195312 125.25996094 8.99882813 126.49746094 8.89257812 127.77246094 C8.59215869 131.3774942 7.68328805 133.35922629 5.20507812 136.02246094 C-1.65219885 139.99671773 -8.26123802 138.8544646 -15.69335938 137.27246094 C-19.2947953 135.82100061 -20.66425886 134.21320752 -22.79492188 131.02246094 C-23.54773438 131.23902344 -24.30054687 131.45558594 -25.07617188 131.67871094 C-37.18417445 134.85265336 -49.82721037 136.3353125 -61.49023438 130.77246094 C-64.83250223 128.23460332 -65.66459521 125.75468197 -66.46289062 121.71777344 C-66.57246094 120.82832031 -66.68203125 119.93886719 -66.79492188 119.02246094 C-66.96765625 118.0028125 -67.14039062 116.98316406 -67.31835938 115.93261719 C-69.01022325 102.0510128 -70.07573031 87.88182333 -61.79492188 76.02246094 C-60.66799334 74.26743323 -59.56187909 72.50091875 -58.46289062 70.72827148 C-57.41275718 69.04847543 -56.32546853 67.39207603 -55.23632812 65.73730469 C-54.52283203 64.39345703 -54.52283203 64.39345703 -53.79492188 63.02246094 C-55.05234275 59.25019831 -56.95426596 57.80811107 -59.79492188 55.02246094 C-60.77702045 53.84669024 -61.74920997 52.66259276 -62.71289062 51.47167969 C-69.30596418 43.49408323 -69.30596418 43.49408323 -78.71289062 40.11230469 C-83.132724 40.00021844 -87.42255462 40.39783704 -91.79492188 41.02246094 C-92.28992188 43.49746094 -92.28992188 43.49746094 -92.79492188 46.02246094 C-93.45492187 46.02246094 -94.11492187 46.02246094 -94.79492188 46.02246094 C-99.05712785 35.42402911 -101.87574425 20.16470636 -97.79492188 9.02246094 C-95.50976562 7.00292969 -95.50976562 7.00292969 -92.73242188 5.20996094 C-91.81332031 4.60539063 -90.89421875 4.00082031 -89.94726562 3.37792969 C-89.23699219 2.930625 -88.52671875 2.48332031 -87.79492188 2.02246094 C-84.95806431 3.33225732 -82.70648831 4.77884967 -80.35742188 6.83496094 C-79.80183594 7.31578125 -79.24625 7.79660156 -78.67382812 8.29199219 C-76.31108026 10.46807806 -74.06280391 12.74778884 -71.79492188 15.02246094 C-70.93253906 15.8384375 -70.07015625 16.65441406 -69.18164062 17.49511719 C-62.61557418 23.79512016 -57.61523578 30.26061689 -52.79492188 38.02246094 C-51.99091527 39.25637852 -51.18348805 40.48807253 -50.37304688 41.71777344 C-49.55510392 42.96501544 -48.73739136 44.21240857 -47.91992188 45.45996094 C-47.53819824 46.03915283 -47.15647461 46.61834473 -46.76318359 47.21508789 C-44.71257949 50.3860063 -43.05941881 53.46190379 -41.79492188 57.02246094 C-41.13492188 57.02246094 -40.47492188 57.02246094 -39.79492188 57.02246094 C-39.46234375 57.92738281 -39.46234375 57.92738281 -39.12304688 58.85058594 C-37.31188809 62.91913104 -35.99612485 65.43481043 -31.89648438 67.44042969 C-29.79333831 68.1049831 -27.67276128 68.71733281 -25.53710938 69.26855469 C-22.79492188 70.02246094 -22.79492188 70.02246094 -19.79492188 72.02246094 C-19.61316406 70.37310547 -19.61316406 70.37310547 -19.42773438 68.69042969 C-18.49535202 60.40498371 -17.45530047 52.20070868 -15.79492188 44.02246094 C-11.3498072 48.20070194 -7.7591319 52.83412162 -4.10742188 57.70996094 C-2.95898729 59.23568369 -1.80930428 60.76046776 -0.65820312 62.28417969 C-0.15587158 62.95408936 0.34645996 63.62399902 0.86401367 64.31420898 C2.24022447 66.13730908 2.24022447 66.13730908 4.20507812 68.02246094 C5.24393757 66.97757912 6.26067575 65.91067213 7.26757812 64.83496094 C7.83605469 64.24328125 8.40453125 63.65160156 8.99023438 63.04199219 C10.4592209 61.07311391 10.4592209 61.07311391 9.90136719 58.66894531 C9.23743754 56.14545394 8.40972646 54.00549819 7.27929688 51.65917969 C6.89451172 50.85416016 6.50972656 50.04914062 6.11328125 49.21972656 C5.71044922 48.39150391 5.30761719 47.56328125 4.89257812 46.70996094 C4.50134766 45.89333984 4.11011719 45.07671875 3.70703125 44.23535156 C2.92582009 42.60944774 2.13325241 40.98894883 1.32910156 39.37426758 C0.20507813 37.02246094 0.20507813 37.02246094 -0.67675781 34.71557617 C-2.29000577 30.6620788 -2.29000577 30.6620788 -5.63305664 28.07348633 C-7.89458062 27.43703735 -10.09441407 27.0412897 -12.41992188 26.70996094 C-14.03500027 26.41973378 -15.64959099 26.12677911 -17.26367188 25.83105469 C-18.04097656 25.69812012 -18.81828125 25.56518555 -19.61914062 25.42822266 C-23.77924833 24.65240365 -27.78420363 23.3526489 -31.79492188 22.02246094 C-29.4251655 18.29855807 -27.1452965 14.92611895 -23.79492188 12.02246094 C-23.13492188 12.02246094 -22.47492188 12.02246094 -21.79492188 12.02246094 C-21.50875 11.43851563 -21.22257812 10.85457031 -20.92773438 10.25292969 C-20.55390625 9.516875 -20.18007812 8.78082031 -19.79492188 8.02246094 C-19.32699219 7.08853516 -19.32699219 7.08853516 -18.84960938 6.13574219 C-14.371432 -0.7001511 -7.44267901 -0.1097446 0 0 Z " fill="#C19235" transform="translate(107.794921875,-1.0224609375)"/>
<path d="M0 0 C2.83685756 1.30979638 5.08843357 2.75638873 7.4375 4.8125 C7.99308594 5.29332031 8.54867188 5.77414063 9.12109375 6.26953125 C11.48384162 8.44561713 13.73211796 10.7253279 16 13 C16.86238281 13.81597656 17.72476563 14.63195313 18.61328125 15.47265625 C25.1793477 21.77265922 30.17968609 28.23815595 35 36 C35.80400661 37.23391758 36.61143382 38.46561159 37.421875 39.6953125 C38.23981795 40.9425545 39.05753051 42.18994763 39.875 43.4375 C40.25672363 44.01669189 40.63844727 44.59588379 41.03173828 45.19262695 C43.08234239 48.36354536 44.73550307 51.43944285 46 55 C46.66 55 47.32 55 48 55 C49.22998047 56.70214844 49.22998047 56.70214844 50.6171875 59.109375 C51.13627686 60.00019775 51.65536621 60.89102051 52.19018555 61.80883789 C52.74617432 62.77942139 53.30216309 63.75000488 53.875 64.75 C55.04474321 66.76480485 56.21533592 68.77911671 57.38671875 70.79296875 C58.28269775 72.33863525 58.28269775 72.33863525 59.19677734 73.91552734 C62.46574009 79.50719744 65.83818599 85.03720893 69.21630859 90.56347656 C75.74487183 101.34940813 75.74487183 101.34940813 74 109 C73.05698138 111.02749004 72.04451438 113.02288349 71 115 C69.28788114 118.9813152 67.64192572 122.98928817 66 127 C67.98 127 69.96 127 72 127 C72 127.66 72 128.32 72 129 C79.59 129.66 87.18 130.32 95 131 C92.42061304 134.86908044 90.44263566 135.4061942 86.0703125 136.6171875 C80.23340844 137.34494399 74.42878952 136.18792525 69 134 C66.5859375 131.375 66.5859375 131.375 65 129 C64.2471875 129.2165625 63.494375 129.433125 62.71875 129.65625 C50.61074742 132.83019242 37.96771151 134.31285156 26.3046875 128.75 C22.96241965 126.21214238 22.13032667 123.73222104 21.33203125 119.6953125 C21.22246094 118.80585937 21.11289062 117.91640625 21 117 C20.82726562 115.98035156 20.65453125 114.96070312 20.4765625 113.91015625 C18.78469863 100.02855186 17.71919157 85.85936239 26 74 C27.12692854 72.24497229 28.23304278 70.47845781 29.33203125 68.70581055 C30.38216469 67.0260145 31.46945334 65.36961509 32.55859375 63.71484375 C33.27208984 62.37099609 33.27208984 62.37099609 34 61 C32.74257913 57.22773738 30.84065591 55.78565013 28 53 C27.01790142 51.8242293 26.0457119 50.64013182 25.08203125 49.44921875 C18.4889577 41.4716223 18.4889577 41.4716223 9.08203125 38.08984375 C4.66219787 37.9777575 0.37236726 38.37537611 -4 39 C-4.495 41.475 -4.495 41.475 -5 44 C-5.66 44 -6.32 44 -7 44 C-11.26220598 33.40156817 -14.08082238 18.14224542 -10 7 C-7.71484375 4.98046875 -7.71484375 4.98046875 -4.9375 3.1875 C-4.01839844 2.58292969 -3.09929688 1.97835938 -2.15234375 1.35546875 C-1.44207031 0.90816406 -0.73179688 0.46085938 0 0 Z " fill="#84A7AD" transform="translate(20,1)"/>
<path d="M0 0 C2.83685756 1.30979638 5.08843357 2.75638873 7.4375 4.8125 C7.99308594 5.29332031 8.54867188 5.77414063 9.12109375 6.26953125 C11.48384162 8.44561713 13.73211796 10.7253279 16 13 C16.86238281 13.81597656 17.72476563 14.63195313 18.61328125 15.47265625 C25.1793477 21.77265922 30.17968609 28.23815595 35 36 C35.80400661 37.23391758 36.61143382 38.46561159 37.421875 39.6953125 C38.23981795 40.9425545 39.05753051 42.18994763 39.875 43.4375 C40.25672363 44.01669189 40.63844727 44.59588379 41.03173828 45.19262695 C43.08234239 48.36354536 44.73550307 51.43944285 46 55 C46.66 55 47.32 55 48 55 C49.22998047 56.70214844 49.22998047 56.70214844 50.6171875 59.109375 C51.13627686 60.00019775 51.65536621 60.89102051 52.19018555 61.80883789 C52.74617432 62.77942139 53.30216309 63.75000488 53.875 64.75 C55.04474321 66.76480485 56.21533592 68.77911671 57.38671875 70.79296875 C58.28269775 72.33863525 58.28269775 72.33863525 59.19677734 73.91552734 C62.46574009 79.50719744 65.83818599 85.03720893 69.21630859 90.56347656 C75.74487183 101.34940813 75.74487183 101.34940813 74 109 C73.05698138 111.02749004 72.04451438 113.02288349 71 115 C69.28788114 118.9813152 67.64192572 122.98928817 66 127 C67.98 127 69.96 127 72 127 C72 127.66 72 128.32 72 129 C79.59 129.66 87.18 130.32 95 131 C92.42015738 134.86976394 90.4423544 135.40941779 86.06640625 136.61328125 C79.55525138 137.43443326 72.6330328 136.09361212 66.92578125 132.8046875 C65.5 131.4375 65.5 131.4375 64 128 C64.09857358 124.48831613 64.98737479 121.34982177 66 118 C66.5682875 116.06418962 67.13083392 114.1266842 67.6875 112.1875 C67.95949219 111.31480469 68.23148437 110.44210938 68.51171875 109.54296875 C69.39705257 104.93215022 67.80628671 101.21466899 66 97 C65.34 97 64.68 97 64 97 C62.456583 95.03229705 61.03351466 93.06183039 59.625 91 C58.73208035 89.72283009 57.8374759 88.44683683 56.94140625 87.171875 C56.46719238 86.49576172 55.99297852 85.81964844 55.50439453 85.12304688 C52.90885825 81.4601479 50.24280985 77.8511273 47.5625 74.25 C47.05477051 73.5590625 46.54704102 72.868125 46.02392578 72.15625 C45.54294434 71.51171875 45.06196289 70.8671875 44.56640625 70.203125 C44.14302979 69.63239258 43.71965332 69.06166016 43.28344727 68.47363281 C41.87632718 66.72751163 41.87632718 66.72751163 39 65 C39 64.34 39 63.68 39 63 C38.4225 62.76023438 37.845 62.52046875 37.25 62.2734375 C34.54559284 60.74281817 33.01819193 58.98720192 31 56.625 C30.20464844 55.74328125 29.40929688 54.8615625 28.58984375 53.953125 C26.77828381 51.88745484 25.07243536 49.8267082 23.37890625 47.671875 C19.25071511 42.70318764 15.9474235 38.87583746 9.23046875 38.2421875 C4.77368899 38.12781035 0.42298348 38.46924198 -4 39 C-4.495 41.475 -4.495 41.475 -5 44 C-5.66 44 -6.32 44 -7 44 C-11.26220598 33.40156817 -14.08082238 18.14224542 -10 7 C-7.71484375 4.98046875 -7.71484375 4.98046875 -4.9375 3.1875 C-4.01839844 2.58292969 -3.09929688 1.97835938 -2.15234375 1.35546875 C-1.44207031 0.90816406 -0.73179688 0.46085938 0 0 Z " fill="#7C5E23" transform="translate(20,1)"/>
<path d="M0 0 C1.76730469 0.32291016 1.76730469 0.32291016 3.5703125 0.65234375 C10.21556989 1.89413427 16.75279669 3.35849012 23.2421875 5.25390625 C25.87194209 6.04462546 25.87194209 6.04462546 28.13671875 6.22045898 C31.66233605 6.6856446 34.14290265 7.04315083 36.57958984 9.76342773 C37.972124 12.10169225 39.13140501 14.45664397 40.25 16.9375 C40.87322144 18.22442749 40.87322144 18.22442749 41.5090332 19.53735352 C42.3278637 21.23940968 43.13276045 22.94825192 43.92236328 24.6640625 C44.83739135 26.64752163 45.80218751 28.60790112 46.77734375 30.5625 C50.06916216 37.27379736 50.06916216 37.27379736 49.8046875 40.05078125 C48.8463458 42.3722012 47.61898051 43.88963858 45.9375 45.75 C45.38964844 46.36359375 44.84179688 46.9771875 44.27734375 47.609375 C43.64505859 48.29773438 43.64505859 48.29773438 43 49 C38.9128083 45.14317729 35.64151508 41.00074977 32.375 36.4375 C31.42458779 35.12361934 30.47406999 33.80981504 29.5234375 32.49609375 C29.08612305 31.88878418 28.64880859 31.28147461 28.19824219 30.65576172 C26.82142131 28.7532354 25.41894723 26.87129618 24 25 C22.36858785 32.69534035 20.76418527 40.28050943 20.2109375 48.14453125 C20 50 20 50 19 52 C15.98687732 51.03662064 12.99279482 50.02460332 10 49 C9.33484375 48.79503906 8.6696875 48.59007812 7.984375 48.37890625 C4.33933653 47.10314279 2.48543322 45.68497114 0.5625 42.4375 C-1 39 -1 39 -1 37 C-1.66 37 -2.32 37 -3 37 C-4.10986328 35.5222168 -4.10986328 35.5222168 -5.3203125 33.44921875 C-5.76979248 32.69261963 -6.21927246 31.93602051 -6.68237305 31.15649414 C-7.15843994 30.34172607 -7.63450684 29.52695801 -8.125 28.6875 C-11.98990449 22.1858931 -15.97807344 16.03208632 -20.63671875 10.06640625 C-22 8 -22 8 -22 5 C-14.16561838 0.3559078 -8.94771999 -2.01513807 0 0 Z " fill="#086395" transform="translate(69,19)"/>
<path d="M0 0 C0.87269531 -0.04060547 1.74539062 -0.08121094 2.64453125 -0.12304688 C6.46749791 -0.14316775 9.09300639 -0.08975489 12.21191406 2.25927734 C14.0703125 4.16796875 14.0703125 4.16796875 15.65673828 6.08276367 C17.13686607 7.96170893 17.13686607 7.96170893 20.125 8.6875 C21.74504233 10.40879497 23.16375786 12.23675478 24.625 14.09375 C26.14016837 15.95594491 26.14016837 15.95594491 29.125 16.6875 C30.135625 16.048125 31.14625 15.40875 32.1875 14.75 C37.36769421 11.59161155 42.73713715 12.04167154 48.54296875 13.1484375 C50.41795692 13.60639921 52.27441791 14.13917938 54.125 14.6875 C54.35960938 14.13578125 54.59421875 13.5840625 54.8359375 13.015625 C57.56436427 8.0879209 61.7035123 4.11929423 66.125 0.6875 C69.25350751 -0.14476322 70.88647023 0.08777227 74.125 0.6875 C70.56306088 7.06149633 66.2686869 11.6924542 60.70703125 16.296875 C58.87341905 17.90864276 57.45987198 19.64593109 56.125 21.6875 C55.17625 21.543125 54.2275 21.39875 53.25 21.25 C52.28513672 21.12625 52.28513672 21.12625 51.30078125 21 C49.125 20.6875 49.125 20.6875 46.85546875 20.1875 C39.00086424 18.76631146 33.81361018 21.72260221 27.125 25.6875 C24.78441919 23.69551633 22.4525715 21.69460876 20.125 19.6875 C19.3103125 18.99140625 18.495625 18.2953125 17.65625 17.578125 C16.8415625 16.87171875 16.026875 16.1653125 15.1875 15.4375 C14.02927734 14.43976562 14.02927734 14.43976562 12.84765625 13.421875 C11.125 11.6875 11.125 11.6875 11.125 9.6875 C10.568125 9.460625 10.01125 9.23375 9.4375 9 C6.49253316 7.32853234 4.44343456 5.13473648 2.125 2.6875 C-1.88909454 4.06376099 -4.59809126 6.03054697 -7.875 8.6875 C-8.535 8.6875 -9.195 8.6875 -9.875 8.6875 C-10.80800171 26.11845086 -10.80800171 26.11845086 -6.65234375 42.80859375 C-4.15939469 52.04127444 -8.94659313 62.50897411 -11.58740234 71.33911133 C-12.15506092 73.24761862 -12.70663095 75.16088782 -13.2578125 77.07421875 C-13.59184082 78.20045654 -13.92586914 79.32669434 -14.27001953 80.48706055 C-15.69129475 88.00582438 -12.15739791 95.59685049 -9.875 102.6875 C-9.67326172 103.31462891 -9.47152344 103.94175781 -9.26367188 104.58789062 C-6.94204342 111.77111095 -4.52163426 118.87706263 -1.57421875 125.83203125 C-0.875 127.6875 -0.875 127.6875 -0.875 129.6875 C-0.215 129.6875 0.445 129.6875 1.125 129.6875 C2.99363862 131.72470138 4.58314926 133.90855926 6.21875 136.13671875 C8.05653391 138.68519359 8.05653391 138.68519359 10.09375 140.83203125 C12.05398049 143.14905808 13.2571611 144.76637215 14.125 147.6875 C13.12001658 152.368607 11.31502464 156.44514689 9.125 160.6875 C7.145 160.6875 5.165 160.6875 3.125 160.6875 C3.875 153.0625 3.875 153.0625 6.125 149.6875 C5.465 149.3575 4.805 149.0275 4.125 148.6875 C3.83625 147.759375 3.5475 146.83125 3.25 145.875 C2.04932771 142.47309517 0.71387864 141.10378673 -1.875 138.6875 C-1.875 138.0275 -1.875 137.3675 -1.875 136.6875 C-2.535 136.6875 -3.195 136.6875 -3.875 136.6875 C-9.42534195 130.33469897 -11.50194215 122.11295564 -13.69433594 114.17285156 C-14.88493143 109.87488628 -16.20373688 105.8589938 -18.01953125 101.78125 C-20.29394367 96.23263586 -20.52313837 91.13331894 -20.4375 85.1875 C-20.43161865 84.1452124 -20.4257373 83.1029248 -20.41967773 82.02905273 C-20.22294576 73.76567729 -18.70252626 66.45903494 -16.06640625 58.66015625 C-13.66929846 51.1521986 -13.62013484 45.85173082 -16.14990234 38.39648438 C-17.51024885 33.31419319 -17.26536411 28.16373924 -17.1875 22.9375 C-17.19072266 21.84050781 -17.19394531 20.74351563 -17.19726562 19.61328125 C-17.11510598 7.28933516 -17.11510598 7.28933516 -12.8671875 2.35546875 C-8.57646092 -0.03635925 -4.83935827 -0.01062817 0 0 Z " fill="#000000" transform="translate(19.875,-0.6875)"/>
<path d="M0 0 C4.44511468 4.178241 8.03578998 8.81166068 11.6875 13.6875 C12.83593458 15.21322275 13.9856176 16.73800682 15.13671875 18.26171875 C15.63905029 18.93162842 16.14138184 19.60153809 16.65893555 20.29174805 C18.03514635 22.11484814 18.03514635 22.11484814 20 24 C20.40992188 23.4946875 20.81984375 22.989375 21.2421875 22.46875 C21.78101563 21.8190625 22.31984375 21.169375 22.875 20.5 C23.40867188 19.8503125 23.94234375 19.200625 24.4921875 18.53125 C24.98976562 18.0259375 25.48734375 17.520625 26 17 C26.66 17 27.32 17 28 17 C27.66905289 19.33368893 27.33527161 21.6669293 27 24 C26.85965332 24.97904297 26.71930664 25.95808594 26.57470703 26.96679688 C26.07883408 30.39578115 25.57126824 33.82290688 25.0625 37.25 C24.80823242 39.02503906 24.80823242 39.02503906 24.54882812 40.8359375 C24.29456055 42.53363281 24.29456055 42.53363281 24.03515625 44.265625 C23.8844165 45.29461914 23.73367676 46.32361328 23.57836914 47.38378906 C23 50 23 50 21 53 C18.69 49.37 16.38 45.74 14 42 C12.515 42.495 12.515 42.495 11 43 C10.67 43.99 10.34 44.98 10 46 C9.34 46 8.68 46 8 46 C7.9175 46.515625 7.835 47.03125 7.75 47.5625 C6.67859775 51.04455732 4.86476395 53.87200885 3 57 C2.34 57 1.68 57 1 57 C0.55011719 56.19820312 0.10023437 55.39640625 -0.36328125 54.5703125 C-4.89781653 46.55536236 -9.60187411 38.6707802 -14.4934082 30.86767578 C-14.9493335 30.13274902 -15.40525879 29.39782227 -15.875 28.640625 C-16.28492187 27.98610352 -16.69484375 27.33158203 -17.1171875 26.65722656 C-18 25 -18 25 -18 23 C-16.22739369 23.45142775 -14.4569632 23.91140523 -12.6875 24.375 C-11.20830078 24.75785156 -11.20830078 24.75785156 -9.69921875 25.1484375 C-7 26 -7 26 -4 28 C-3.81824219 26.35064453 -3.81824219 26.35064453 -3.6328125 24.66796875 C-2.70043015 16.38252277 -1.66037859 8.17824774 0 0 Z " fill="#B8E6E9" transform="translate(92,43)"/>
<path d="M0 0 C2.64 0 5.28 0 8 0 C8.79275148 1.4160599 9.58415312 2.83287553 10.375 4.25 C10.81585938 5.03890625 11.25671875 5.8278125 11.7109375 6.640625 C12.13632813 7.41921875 12.56171875 8.1978125 13 9 C13.35293625 9.62284378 13.7058725 10.24568756 14.06950378 10.8874054 C16.71272704 16.8885681 14.80438314 25.06427811 14.16796875 31.42578125 C14.00686155 33.21014254 13.84740767 34.99465374 13.68945312 36.77929688 C13.44283812 39.54545032 13.18782147 42.30936486 12.90454102 45.07202148 C11.38072502 59.24733765 11.38072502 59.24733765 15.7668457 72.61401367 C18.33181062 77.57687294 18.18182841 82.54514771 18 88 C17.67 88.33 17.34 88.66 17 89 C16.83161896 90.85691063 16.72355712 92.7193473 16.640625 94.58203125 C16.57617188 95.74283203 16.51171875 96.90363281 16.4453125 98.09960938 C16.31739945 100.53123647 16.2023258 102.963581 16.1015625 105.39648438 C15.60218423 113.8258047 13.74090126 120.44361117 10 128 C9.45214844 129.12277344 8.90429688 130.24554688 8.33984375 131.40234375 C7.87707031 132.23894531 7.41429687 133.07554687 6.9375 133.9375 C6.47214844 134.79214844 6.00679687 135.64679688 5.52734375 136.52734375 C3.87471181 139.2028323 2.0095085 141.58426828 0 144 C0.85464844 144.81984375 1.70929688 145.6396875 2.58984375 146.484375 C3.70612302 147.57251277 4.82198686 148.66107684 5.9375 149.75 C6.50146484 150.28882813 7.06542969 150.82765625 7.64648438 151.3828125 C8.18466797 151.91132813 8.72285156 152.43984375 9.27734375 152.984375 C10.02359009 153.70705566 10.02359009 153.70705566 10.78491211 154.44433594 C12.20077124 156.25704528 12.59147949 157.75631224 13 160 C10.23699616 160.46473652 8.67987353 160.64131584 6 160 C2.80712788 157.69482887 0.22716833 154.88652087 -2.4375 152 C-3.53481445 150.8553125 -3.53481445 150.8553125 -4.65429688 149.6875 C-6.4530237 147.80647849 -8.23340018 145.91114269 -10 144 C-9.06409496 142.8944811 -8.12620142 141.79064547 -7.1875 140.6875 C-6.66542969 140.07261719 -6.14335938 139.45773438 -5.60546875 138.82421875 C-4 137 -4 137 -2.3671875 135.41357422 C-0.5336807 133.51785915 0.10003423 131.59240616 1 129.125 C2.38371731 125.48085898 3.96586633 122.32858237 6 119 C7.56071193 114.89138761 8.3250049 111.20083694 8.6328125 106.82421875 C8.71660156 105.66599609 8.80039063 104.50777344 8.88671875 103.31445312 C9.00466797 101.51911133 9.00466797 101.51911133 9.125 99.6875 C9.21136719 98.50220703 9.29773438 97.31691406 9.38671875 96.09570312 C9.62182606 92.73142943 9.82128557 89.36769883 10 86 C10.05397949 85.11900635 10.10795898 84.2380127 10.16357422 83.33032227 C10.34551086 78.39182162 9.63278914 75.62498311 6.875 71.5625 C2.74504176 63.94093772 4.32432625 57.49312464 5.65966797 49.30371094 C6.49932701 43.62005043 6.67700538 37.8659459 6.90332031 32.13085938 C7.00257124 29.94332892 7.15386546 27.76264297 7.3046875 25.578125 C7.85023897 15.25259324 6.16290774 9.55260666 0 1 C0 0.67 0 0.34 0 0 Z " fill="#000000" transform="translate(126,0)"/>
<path d="M0 0 C1.08920594 3.23481582 0.96451144 4.80368172 -0.46875 7.87890625 C-5.06114938 18.44746596 -6.49954848 26.27181258 -5.33984375 37.7109375 C-4.81876277 42.97281093 -5.42980058 47.94524843 -7 53 C-8.80746501 54.80746501 -11.5026019 54.17329406 -13.9375 54.1875 C-19.84655733 54.15488931 -25.28060279 53.44598756 -31 52 C-31 51.34 -31 50.68 -31 50 C-32.98 50 -34.96 50 -37 50 C-35.6211884 44.16260136 -33.39323173 38.7971325 -30.75 33.4375 C-28.7793828 29.13797156 -28.84018784 26.54259763 -30 22 C-29.34 22 -28.68 22 -28 22 C-27.71898438 21.28328125 -27.43796875 20.5665625 -27.1484375 19.828125 C-26.03959694 17.09751084 -24.87871685 14.41714286 -23.625 11.75 C-23.22539063 10.87859375 -22.82578125 10.0071875 -22.4140625 9.109375 C-21 7 -21 7 -17 6 C-14.69 9.3 -12.38 12.6 -10 16 C-7.97841942 11.27257212 -7.97841942 11.27257212 -7.0625 7.25 C-6.5365625 5.64125 -6.5365625 5.64125 -6 4 C-5.01 3.67 -4.02 3.34 -3 3 C-2.505 3.495 -2.505 3.495 -2 4 C-1.34 2.68 -0.68 1.36 0 0 Z " fill="#CF9D3B" transform="translate(123,78)"/>
<path d="M0 0 C3.67725381 1.22575127 4.24908084 2.16900826 6.25 5.4375 C11.28185101 15.73726417 8.93840307 27.93056552 8 39 C7.9232605 40.41297363 7.9232605 40.41297363 7.8449707 41.85449219 C7.41126584 48.46344468 5.81380623 51.46283274 1.1328125 56.2109375 C-1.48267511 58.40488132 -3.60581917 59.52639337 -7 60 C-7.99 59.67 -8.98 59.34 -10 59 C-10.24524001 56.93297709 -10.48124541 54.86463029 -10.68359375 52.79296875 C-10.96671035 49.98424766 -10.96671035 49.98424766 -11.53515625 47.17578125 C-13.07450143 37.07302002 -9.6913558 29.31074966 -5.88818359 20.14550781 C-3.14521684 13.51956174 -0.63753808 7.17230338 0 0 Z " fill="#90AEB8" transform="translate(128,64)"/>
<path d="M0 0 C2.91537501 1.31714458 4.9847013 2.73658126 7.234375 5.00390625 C7.80800781 5.57947266 8.38164063 6.15503906 8.97265625 6.74804688 C9.55917969 7.34681641 10.14570312 7.94558594 10.75 8.5625 C11.35199219 9.16513672 11.95398438 9.76777344 12.57421875 10.38867188 C17 14.85961416 17 14.85961416 17 16 C-16 16 -49 16 -83 16 C-82.06588007 12.2635203 -80.77257035 9.39100415 -79 6 C-72.17503631 6.41984275 -65.75493581 7.42657217 -59.10986328 9.01977539 C-47.40412728 11.76839027 -38.00208838 12.37466769 -26.33984375 9.54248047 C-23.83105183 8.96083025 -21.31872773 8.50540489 -18.78125 8.06640625 C-17.06222671 7.75410471 -15.34346778 7.44034395 -13.625 7.125 C-12.83367676 6.98843994 -12.04235352 6.85187988 -11.22705078 6.71118164 C-5.96819357 5.65176552 -3.4340844 4.14552818 0 0 Z " fill="#065D8D" transform="translate(115,144)"/>
<path d="M0 0 C10 11.92307692 10 11.92307692 10 16 C10.66 16 11.32 16 12 16 C13.22998047 17.70214844 13.22998047 17.70214844 14.6171875 20.109375 C15.13627686 21.00019775 15.65536621 21.89102051 16.19018555 22.80883789 C16.74617432 23.77942139 17.30216309 24.75000488 17.875 25.75 C19.04474321 27.76480485 20.21533592 29.77911671 21.38671875 31.79296875 C21.98403809 32.82341309 22.58135742 33.85385742 23.19677734 34.91552734 C26.46574009 40.50719744 29.83818599 46.03720893 33.21630859 51.56347656 C39.74487183 62.34940813 39.74487183 62.34940813 38 70 C37.05698138 72.02749004 36.04451438 74.02288349 35 76 C33.28788114 79.9813152 31.64192572 83.98928817 30 88 C31.98 88 33.96 88 36 88 C36 88.66 36 89.32 36 90 C43.59 90.66 51.18 91.32 59 92 C56.42015738 95.86976394 54.4423544 96.40941779 50.06640625 97.61328125 C43.55525138 98.43443326 36.6330328 97.09361212 30.92578125 93.8046875 C29.5 92.4375 29.5 92.4375 28 89 C28.09857358 85.48831613 28.98737479 82.34982177 30 79 C30.5682875 77.06418962 31.13083392 75.1266842 31.6875 73.1875 C32.09548828 71.87845703 32.09548828 71.87845703 32.51171875 70.54296875 C33.39705257 65.93215022 31.80628671 62.21466899 30 58 C29.34 58 28.68 58 28 58 C27.14878887 56.48910024 26.3198645 54.96563634 25.5 53.4375 C25.0359375 52.59058594 24.571875 51.74367187 24.09375 50.87109375 C23 48 23 48 23.15625 44.6953125 C22.9399922 39.58081565 20.77373815 36.62734503 18 32.4375 C16.98928242 30.84997777 15.98018472 29.26142313 14.97265625 27.671875 C14.21879639 26.4952832 14.21879639 26.4952832 13.44970703 25.29492188 C11.35385445 21.9771357 9.38046373 18.59647612 7.4375 15.1875 C6.50744141 13.56908203 6.50744141 13.56908203 5.55859375 11.91796875 C4.17042163 9.31906005 3.02503337 6.75892067 2 4 C1.34 4 0.68 4 0 4 C0 2.68 0 1.36 0 0 Z " fill="#89661F" transform="translate(56,40)"/>
<path d="M0 0 C0.928125 0.20625 1.85625 0.4125 2.8125 0.625 C2.8125 1.285 2.8125 1.945 2.8125 2.625 C3.4725 2.625 4.1325 2.625 4.8125 2.625 C7.38715728 7.31996328 7.06697346 11.5704792 5.8125 16.625 C4.125 19.625 4.125 19.625 1.8125 21.625 C-1.4375 22.4375 -1.4375 22.4375 -4.1875 22.625 C-9.54464286 16.19642857 -9.54464286 16.19642857 -9.6875 11.5625 C-9.17581639 7.53299157 -8.37455292 5.02708232 -6.1875 1.625 C-3.1875 -0.375 -3.1875 -0.375 0 0 Z " fill="#183751" transform="translate(69.1875,100.375)"/>
<path d="M0 0 C1.93080096 0.3701689 3.84605707 0.82258298 5.75 1.3125 C6.79671875 1.57675781 7.8434375 1.84101562 8.921875 2.11328125 C11.70992325 2.91643728 14.33118941 3.86822662 17 5 C16.360625 5.763125 15.72125 6.52625 15.0625 7.3125 C11.77175873 11.6004356 11.40478161 15.73231728 12 21 C13.3648868 24.40241824 13.3648868 24.40241824 15 27 C9.99831682 26.75601545 7.11990315 25.17944541 3.546875 21.859375 C-1.0001496 16.39375958 -1.32993091 9.81626909 -1.203125 2.96875 C-1 1 -1 1 0 0 Z " fill="#C0BFB7" transform="translate(49,95)"/>
<path d="M0 0 C8.22147429 0.54451639 16.12882497 1.87711805 24.1875 3.5625 C25.90163086 3.91344727 25.90163086 3.91344727 27.65039062 4.27148438 C30.43473738 4.84233371 33.21784449 5.41858235 36 6 C35.67 7.32 35.34 8.64 35 10 C22.13 10 9.26 10 -4 10 C-3.06588007 6.2635203 -1.77257035 3.39100415 0 0 Z " fill="#035581" transform="translate(36,150)"/>
<path d="M0 0 C0.33 0 0.66 0 1 0 C1.09471858 9.0719352 1.14516104 17.98185679 0 27 C-3.63 27 -7.26 27 -11 27 C-13.58515222 20.53711944 -13.89716897 15.91895957 -11.5 9.5 C-11.005 8.345 -10.51 7.19 -10 6 C-8.68 6 -7.36 6 -6 6 C-6 11.28 -6 16.56 -6 22 C-2.31769578 14.75813504 -0.9450982 8.04577024 0 0 Z " fill="#71888B" transform="translate(135,86)"/>
<path d="M0 0 C1.77260631 0.45142775 3.5430368 0.91140523 5.3125 1.375 C6.79169922 1.75785156 6.79169922 1.75785156 8.30078125 2.1484375 C11 3 11 3 14 5 C14.33 4.01 14.66 3.02 15 2 C15.99 2 16.98 2 18 2 C17.979375 3.0725 17.95875 4.145 17.9375 5.25 C17.84615017 8.76203915 17.84615017 8.76203915 18.5625 11.125 C19.14535945 13.62296909 18.61480045 15.54079819 18 18 C12.94765308 18.68012362 12.94765308 18.68012362 10 18 C7.53915934 15.73921545 6.08564804 13.04199404 4.5 10.125 C3.83871094 9.00544922 3.83871094 9.00544922 3.1640625 7.86328125 C0 2.40969526 0 2.40969526 0 0 Z " fill="#F7FEFD" transform="translate(74,66)"/>
<path d="M0 0 C3.47227325 0.65573506 6.85512876 1.45664648 10.25 2.4375 C11.55710937 2.80681641 11.55710937 2.80681641 12.890625 3.18359375 C15 4 15 4 16 6 C13.44399109 12.32716959 9.09021025 16.17591057 3 19 C0 19.8125 0 19.8125 -2 20 C-1.69964844 19.52691406 -1.39929688 19.05382812 -1.08984375 18.56640625 C2.07645203 13.06027155 2.42087881 9.15714152 1 3 C0.67 2.01 0.34 1.02 0 0 Z " fill="#C3C2BB" transform="translate(73,102)"/>
<path d="M0 0 C3 1 3 1 4.1328125 2.85546875 C5.99703618 7.23712835 7.50897715 11.21252717 8 16 C6.68 16 5.36 16 4 16 C4 17.32 4 18.64 4 20 C2.68 20 1.36 20 0 20 C0 21.32 0 22.64 0 24 C-1.32 24 -2.64 24 -4 24 C-5.78592314 18.49340364 -4.02040185 14.82261778 -1.9921875 9.703125 C-0.78660015 6.41861143 -0.308515 3.47079371 0 0 Z " fill="#8EAEB0" transform="translate(128,64)"/>
<path d="M0 0 C0.433125 0.825 0.86625 1.65 1.3125 2.5 C4.52988457 5.49291588 5.3859954 5.29305844 9.625 5.1875 C11.06746094 5.08501953 11.06746094 5.08501953 12.5390625 4.98046875 C15 5 15 5 17 7 C9.87410898 16.06548266 9.87410898 16.06548266 4 17 C3.01 16.67 2.02 16.34 1 16 C0.31798844 10.62915894 -0.11521265 5.41499441 0 0 Z " fill="#789AA1" transform="translate(117,107)"/>
<path d="M0 0 C10 11.92307692 10 11.92307692 10 16 C10.66 16 11.32 16 12 16 C13.22998047 17.70214844 13.22998047 17.70214844 14.6171875 20.109375 C15.39618408 21.44597168 15.39618408 21.44597168 16.19091797 22.80957031 C16.74666504 23.77991211 17.30241211 24.75025391 17.875 25.75 C19.04066632 27.76099685 20.20735751 29.77139993 21.375 31.78125 C22.27025391 33.32619141 22.27025391 33.32619141 23.18359375 34.90234375 C24.94378725 37.90413611 26.74260271 40.877842 28.5625 43.84375 C29.11953613 44.75415039 29.67657227 45.66455078 30.25048828 46.60253906 C31.32127331 48.34759359 32.39765081 50.0892306 33.47998047 51.82714844 C33.95838379 52.6112207 34.43678711 53.39529297 34.9296875 54.203125 C35.35491699 54.89051758 35.78014648 55.57791016 36.21826172 56.28613281 C36.47623535 56.85170898 36.73420898 57.41728516 37 58 C36.505 58.99 36.505 58.99 36 60 C16.4931512 30.93014072 16.4931512 30.93014072 8.7265625 17.04296875 C7.22138515 14.39017881 5.64858504 11.81497728 4 9.25 C2 6 2 6 2 4 C1.34 4 0.68 4 0 4 C0 2.68 0 1.36 0 0 Z " fill="#E1A337" transform="translate(56,40)"/>
<path d="M0 0 C2.4343598 0.23616923 4.83024284 0.53177597 7.25 0.875 C14.48709178 1.84746378 21.71148105 2.52574705 29 3 C26.42061304 6.86908044 24.44263566 7.4061942 20.0703125 8.6171875 C14.23340844 9.34494399 8.42878952 8.18792525 3 6 C0.5859375 3.375 0.5859375 3.375 -1 1 C-0.67 0.67 -0.34 0.34 0 0 Z " fill="#7D5E22" transform="translate(86,129)"/>
<path d="M0 0 C1.3303125 0.4021875 1.3303125 0.4021875 2.6875 0.8125 C2.6875 1.4725 2.6875 2.1325 2.6875 2.8125 C3.3475 2.8125 4.0075 2.8125 4.6875 2.8125 C6.04189668 5.52129335 5.75251451 7.82183268 5.6875 10.8125 C5.3575 9.8225 5.0275 8.8325 4.6875 7.8125 C4.0275 7.8125 3.3675 7.8125 2.6875 7.8125 C2.0275 9.1325 1.3675 10.4525 0.6875 11.8125 C-1.2925 11.8125 -3.2725 11.8125 -5.3125 11.8125 C-5.3125 10.4925 -5.3125 9.1725 -5.3125 7.8125 C-5.9725 7.8125 -6.6325 7.8125 -7.3125 7.8125 C-7.6425 8.8025 -7.9725 9.7925 -8.3125 10.8125 C-8.78177699 6.77671785 -8.61108931 5.22525581 -6.1875 1.875 C-3.3125 -0.1875 -3.3125 -0.1875 0 0 Z " fill="#0C1012" transform="translate(69.3125,100.1875)"/>
<path d="M0 0 C10.15317287 -0.63019694 10.15317287 -0.63019694 13.6875 2 C14.120625 2.66 14.55375 3.32 15 4 C15.66 3.67 16.32 3.34 17 3 C17.125 8.75 17.125 8.75 16 11 C10.53262809 9.25192871 5.24175152 7.34205919 0 5 C0 3.35 0 1.7 0 0 Z " fill="#3693C2" transform="translate(72,60)"/>
<path d="M0 0 C0.66 0 1.32 0 2 0 C1.66905289 2.33368893 1.33527161 4.6669293 1 7 C0.85965332 7.97904297 0.71930664 8.95808594 0.57470703 9.96679688 C0.07883408 13.39578115 -0.42873176 16.82290688 -0.9375 20.25 C-1.10701172 21.43335937 -1.27652344 22.61671875 -1.45117188 23.8359375 C-1.62068359 24.96773437 -1.79019531 26.09953125 -1.96484375 27.265625 C-2.1155835 28.29461914 -2.26632324 29.32361328 -2.42163086 30.38378906 C-3 33 -3 33 -5 36 C-9 30.25 -9 30.25 -9 28 C-8.34 28 -7.68 28 -7 28 C-6.87625 27.236875 -6.7525 26.47375 -6.625 25.6875 C-6 23 -6 23 -4 20 C-3.34 20 -2.68 20 -2 20 C-2 16.04 -2 12.08 -2 8 C-3.32 8.33 -4.64 8.66 -6 9 C-4.4722133 5.56247993 -2.49818944 2.81046312 0 0 Z " fill="#A5D1D8" transform="translate(118,60)"/>
<path d="M0 0 C0.39368698 10.47644789 -1.41477952 18.58471716 -6 28 C-6.33 28 -6.66 28 -7 28 C-7.17576433 24.64650673 -7.28132437 21.29421021 -7.375 17.9375 C-7.42527344 16.99455078 -7.47554688 16.05160156 -7.52734375 15.08007812 C-7.63408939 9.97407817 -7.40534222 6.8094619 -4.0390625 2.81640625 C-1.2691914 0 -1.2691914 0 0 0 Z " fill="#CAC1BA" transform="translate(135,82)"/>
<path d="M0 0 C1.33895632 1.66215268 2.67130142 3.32963607 4 5 C4.598125 5.61875 5.19625 6.2375 5.8125 6.875 C7.65075322 10.16450576 6.8652958 12.41520312 6 16 C5.05698138 18.02749004 4.04451438 20.02288349 3 22 C1.28788114 25.9813152 -0.35807428 29.98928817 -2 34 C-0.02 34 1.96 34 4 34 C4 34.66 4 35.32 4 36 C0.04 35.505 0.04 35.505 -4 35 C-3.68991116 33.39536551 -3.37683713 31.79130769 -3.0625 30.1875 C-2.80146484 28.84751953 -2.80146484 28.84751953 -2.53515625 27.48046875 C-2 25 -2 25 -1 22 C-0.34 22 0.32 22 1 22 C2.36855842 15.32827772 3.1673497 9.13439271 0 3 C0 2.01 0 1.02 0 0 Z " fill="#A37D2E" transform="translate(88,94)"/>
<path d="M0 0 C0.99 0.33 1.98 0.66 3 1 C3 3.64 3 6.28 3 9 C2.34 9 1.68 9 1 9 C0.67 7.35 0.34 5.7 0 4 C-0.33 6.31 -0.66 8.62 -1 11 C-0.01 10.67 0.98 10.34 2 10 C1.85904936 11.6254308 1.71207913 13.25034051 1.5625 14.875 C1.48128906 15.77992187 1.40007812 16.68484375 1.31640625 17.6171875 C1 20 1 20 0 22 C-0.66 22 -1.32 22 -2 22 C-4.49578009 17.00843983 -4.86965273 12.0649956 -3.359375 6.7421875 C-1.40995763 1.40995763 -1.40995763 1.40995763 0 0 Z " fill="#060910" transform="translate(126,91)"/>
<path d="M0 0 C1.37338972 3.71519526 0.6060584 5.97936474 -0.75 9.625 C-1.09546875 10.58664063 -1.4409375 11.54828125 -1.796875 12.5390625 C-3 15 -3 15 -6 17 C-7.19232613 19.05003955 -7.19232613 19.05003955 -8 21 C-10 18 -10 18 -9.42578125 14.6796875 C-9.05839844 13.42414063 -8.69101563 12.16859375 -8.3125 10.875 C-7.95800781 9.61429688 -7.60351562 8.35359375 -7.23828125 7.0546875 C-6.82964844 6.04664062 -6.42101562 5.03859375 -6 4 C-5.01 3.67 -4.02 3.34 -3 3 C-2.67 3.33 -2.34 3.66 -2 4 C-1.34 2.68 -0.68 1.36 0 0 Z " fill="#FDC54F" transform="translate(123,78)"/>
<path d="M0 0 C1.32 0 2.64 0 4 0 C3.8049085 4.47734991 3.53734154 8.04472615 1.3125 12 C-1.46675027 14.40367591 -3.37886858 14.75310468 -7 15 C-7.66 14.01 -8.32 13.02 -9 12 C-8 10 -8 10 -5 8.9375 C-4.01 8.628125 -3.02 8.31875 -2 8 C-0.03177114 6.03177114 -0.33751619 2.65191291 0 0 Z " fill="#1E486C" transform="translate(72,108)"/>
<path d="M0 0 C2.33944736 0.28730055 4.6739143 0.61936779 7 1 C4.92446352 1.5534764 3.15634036 2 1 2 C0.43061194 9.43367743 1.31070079 15.43857535 5 22 C8.26812913 25.44013592 11.46248192 26.73371588 16 28 C16 28.66 16 29.32 16 30 C11.6570138 29.34197179 7.92722404 27.96361202 4 26 C3.67 25.01 3.34 24.02 3 23 C2.01 22.67 1.02 22.34 0 22 C-1.31994126 15.07030839 -1.32058604 8.03403491 -1 1 C-0.67 0.67 -0.34 0.34 0 0 Z " fill="#758991" transform="translate(48,94)"/>
<path d="M0 0 C2.97 0.495 2.97 0.495 6 1 C6 1.99 6 2.98 6 4 C5.01 4.66 4.02 5.32 3 6 C2.67 6.99 2.34 7.98 2 9 C1.34 9 0.68 9 0 9 C-0.0825 9.515625 -0.165 10.03125 -0.25 10.5625 C-1.32140225 14.04455732 -3.13523605 16.87200885 -5 20 C-5.66 20 -6.32 20 -7 20 C-7.33 18.68 -7.66 17.36 -8 16 C-7.01 15.34 -6.02 14.68 -5 14 C-4.26656572 10.93443402 -4.26656572 10.93443402 -4 8 C-2.68 8 -1.36 8 0 8 C0 5.36 0 2.72 0 0 Z " fill="#BAD7CF" transform="translate(100,80)"/>
<path d="M0 0 C1.1725131 0.95117134 2.33787015 1.91117009 3.5 2.875 C4.47453125 3.67550781 4.47453125 3.67550781 5.46875 4.4921875 C5.9740625 4.98976563 6.479375 5.48734375 7 6 C7 6.66 7 7.32 7 8 C7.99 8.33 8.98 8.66 10 9 C11 12 11 12 9.8203125 14.48046875 C9.26085938 15.37378906 8.70140625 16.26710938 8.125 17.1875 C7.57070313 18.08855469 7.01640625 18.98960938 6.4453125 19.91796875 C5.96835937 20.60503906 5.49140625 21.29210937 5 22 C4.67 22 4.34 22 4 22 C4 19.36 4 16.72 4 14 C5.32 14 6.64 14 8 14 C8 12.68 8 11.36 8 10 C6.68 10 5.36 10 4 10 C4 8.68 4 7.36 4 6 C2.68 6 1.36 6 0 6 C0 4.02 0 2.04 0 0 Z " fill="#074770" transform="translate(44,50)"/>
<path d="M0 0 C1.11791081 3.35373243 1.02118796 6.52055523 0.96875 10.02734375 C1.00691792 12.43669375 1.41652105 14.66608421 2 17 C-0.94422416 16.69542509 -1.85920226 16.16507321 -3.8125 13.875 C-5.37796304 10.08493159 -5.07199544 7.93064995 -4 4 C-1.9375 1.5625 -1.9375 1.5625 0 0 Z " fill="#B0C5C5" transform="translate(122,96)"/>
<path d="M0 0 C0.66 0 1.32 0 2 0 C2 1.32 2 2.64 2 4 C1.34 4 0.68 4 0 4 C0 9.28 0 14.56 0 20 C-1.32 20 -2.64 20 -4 20 C-5.3431603 14.77213057 -4.49026317 11.60897307 -2.5625 6.625 C-2.19801758 5.66400391 -2.19801758 5.66400391 -1.82617188 4.68359375 C-1.23012574 3.11751176 -0.61680615 1.55802245 0 0 Z " fill="#88AFBC" transform="translate(128,68)"/>
<path d="M0 0 C0.33 1.65 0.66 3.3 1 5 C-4.28 5 -9.56 5 -15 5 C-14.67 4.01 -14.34 3.02 -14 2 C-9.619084 0.30737336 -4.67375574 -0.30153263 0 0 Z " fill="#1D7CAD" transform="translate(86,155)"/>
<path d="M0 0 C2.475 0.99 2.475 0.99 5 2 C5 2.66 5 3.32 5 4 C5.556875 4.185625 6.11375 4.37125 6.6875 4.5625 C10.06754192 6.66360714 11.85140381 9.70665994 14 13 C12.68 13.33 11.36 13.66 10 14 C10 12.68 10 11.36 10 10 C8.68 10 7.36 10 6 10 C6 8.68 6 7.36 6 6 C3.36 6 0.72 6 -2 6 C-1.34 4.02 -0.68 2.04 0 0 Z " fill="#9ABCB9" transform="translate(54,62)"/>
<path d="M0 0 C0.66 0 1.32 0 2 0 C1.38251126 2.77270429 0.75637544 5.54295598 0.125 8.3125 C-0.04902344 9.09818359 -0.22304687 9.88386719 -0.40234375 10.69335938 C-0.57636719 11.45068359 -0.75039062 12.20800781 -0.9296875 12.98828125 C-1.08679199 13.68477783 -1.24389648 14.38127441 -1.40576172 15.09887695 C-2 17 -2 17 -4 20 C-4.33 18.02 -4.66 16.04 -5 14 C-5.99 13.67 -6.98 13.34 -8 13 C-7.34 12.34 -6.68 11.68 -6 11 C-5.35232207 8.42938689 -5.35232207 8.42938689 -5 6 C-4.34 6.33 -3.68 6.66 -3 7 C-2.01 4.69 -1.02 2.38 0 0 Z " fill="#DEA73B" transform="translate(117,94)"/>
<path d="M0 0 C1.32 0 2.64 0 4 0 C4 2.64 4 5.28 4 8 C5.32 8 6.64 8 8 8 C8 11.3 8 14.6 8 18 C4.88067839 16.4403392 4.30874051 13.80086406 2.875 10.6875 C2.33617188 9.53636719 1.79734375 8.38523437 1.2421875 7.19921875 C0 4 0 4 0 0 Z " fill="#D29931" transform="translate(108,32)"/>
<path d="M0 0 C1.91595968 -0.08133791 3.83291932 -0.13934367 5.75 -0.1875 C7.35101563 -0.23970703 7.35101563 -0.23970703 8.984375 -0.29296875 C12.33423795 0.0324713 13.60774115 0.691582 16 3 C16.33 3.66 16.66 4.32 17 5 C16.67 5.66 16.34 6.32 16 7 C10.53262809 5.25192871 5.24175152 3.34205919 0 1 C0 0.67 0 0.34 0 0 Z " fill="#57A6C8" transform="translate(72,64)"/>
<path d="M0 0 C3.17972225 3.75591353 5.68373101 7.70996576 8.0625 12 C10.83688114 16.96439446 10.83688114 16.96439446 13.80859375 21.8125 C14.20175781 22.534375 14.59492187 23.25625 15 24 C14.67 24.66 14.34 25.32 14 26 C11.06292033 21.6200443 8.13613053 17.23358432 5.22265625 12.83789062 C4.21901883 11.32922798 3.20472721 9.82765821 2.1875 8.328125 C1.04549084 6.60213388 0.00803495 4.80751094 -1 3 C-0.67 2.01 -0.34 1.02 0 0 Z " fill="#E9BA3F" transform="translate(78,74)"/>
<path d="M0 0 C0.66 0.33 1.32 0.66 2 1 C2 3.97 2 6.94 2 10 C1.34 10 0.68 10 0 10 C-0.33 9.34 -0.66 8.68 -1 8 C-1.39832031 8.49371094 -1.79664063 8.98742187 -2.20703125 9.49609375 C-2.73683594 10.13675781 -3.26664063 10.77742188 -3.8125 11.4375 C-4.59560547 12.39462891 -4.59560547 12.39462891 -5.39453125 13.37109375 C-7 15 -7 15 -10 16 C-10.33 14.68 -10.66 13.36 -11 12 C-9.68 12 -8.36 12 -7 12 C-7 10.68 -7 9.36 -7 8 C-5.68 8 -4.36 8 -3 8 C-3 6.68 -3 5.36 -3 4 C-1.68 4 -0.36 4 1 4 C0.67 2.68 0.34 1.36 0 0 Z " fill="#86A2A2" transform="translate(135,76)"/>
<path d="M0 0 C0.33 0.66 0.66 1.32 1 2 C1.66 2 2.32 2 3 2 C2.88541307 3.43836751 2.75790884 4.87570966 2.625 6.3125 C2.55539063 7.11300781 2.48578125 7.91351563 2.4140625 8.73828125 C2 11 2 11 0 14 C-4 8.25 -4 8.25 -4 6 C-3.34 6 -2.68 6 -2 6 C-1.855625 5.195625 -1.71125 4.39125 -1.5625 3.5625 C-1 1 -1 1 0 0 Z " fill="#A2CBCA" transform="translate(113,82)"/>
<path d="M0 0 C0.33 0 0.66 0 1 0 C2.33257403 14.78132118 2.33257403 14.78132118 1 21 C0.34 20.67 -0.32 20.34 -1 20 C-2.63002843 13.47988628 -3.14463473 6.09272978 0 0 Z " fill="#BE8C2F" transform="translate(116,106)"/>
<path d="M0 0 C0.66 0 1.32 0 2 0 C2.77001757 6.9301581 0.0898056 11.89763393 -3 18 C-3.33 18 -3.66 18 -4 18 C-3.67 12.72 -3.34 7.44 -3 2 C-2.34 2.66 -1.68 3.32 -1 4 C-0.67 2.68 -0.34 1.36 0 0 Z " fill="#B9B8B4" transform="translate(132,92)"/>
<path d="M0 0 C0.66 0 1.32 0 2 0 C2 4.29 2 8.58 2 13 C2.66 13 3.32 13 4 13 C3.34 14.32 2.68 15.64 2 17 C1.67 16.34 1.34 15.68 1 15 C0.34 15 -0.32 15 -1 15 C-1.33 15.66 -1.66 16.32 -2 17 C-1.34 11.39 -0.68 5.78 0 0 Z " fill="#EFAF38" transform="translate(118,67)"/>
<path d="M0 0 C0.99 0 1.98 0 3 0 C2.979375 1.0725 2.95875 2.145 2.9375 3.25 C2.84615017 6.76203915 2.84615017 6.76203915 3.5625 9.125 C4.14535945 11.62296909 3.61480045 13.54079819 3 16 C0.36 16 -2.28 16 -5 16 C-5 15.34 -5 14.68 -5 14 C-1.535 13.505 -1.535 13.505 2 13 C1.67 10.03 1.34 7.06 1 4 C0.01 3.67 -0.98 3.34 -2 3 C-1.34 2.01 -0.68 1.02 0 0 Z " fill="#D8FDFE" transform="translate(89,68)"/>
<path d="M0 0 C0.125 2.375 0.125 2.375 0 5 C-0.66 5.66 -1.32 6.32 -2 7 C-4.625 6.625 -4.625 6.625 -7 6 C-7.33 4.68 -7.66 3.36 -8 2 C-1.125 0 -1.125 0 0 0 Z " fill="#000B1B" transform="translate(72,110)"/>
<path d="M0 0 C0.66 1.32 1.32 2.64 2 4 C2.99 4 3.98 4 5 4 C5.125 10.75 5.125 10.75 4 13 C3.34 13 2.68 13 2 13 C-0.24828052 8.50343896 -0.16682272 4.92127034 0 0 Z " fill="#183C5E" transform="translate(122,100)"/>
<path d="M0 0 C0.66 0 1.32 0 2 0 C2 1.32 2 2.64 2 4 C3.32 4 4.64 4 6 4 C6 7.96 6 11.92 6 16 C4.38494522 12.76989044 3.09487521 9.69652421 1.875 6.3125 C1.52179687 5.33925781 1.16859375 4.36601563 0.8046875 3.36328125 C0 1 0 1 0 0 Z " fill="#002E42" transform="translate(6,92)"/>
<path d="M0 0 C1.15518918 0.90484792 2.29885406 1.8244206 3.4375 2.75 C4.07558594 3.26046875 4.71367188 3.7709375 5.37109375 4.296875 C7.18810554 6.19667629 7.60423197 7.43586908 8 10 C6.68 10 5.36 10 4 10 C4 8.68 4 7.36 4 6 C2.68 6 1.36 6 0 6 C0 4.02 0 2.04 0 0 Z " fill="#02467C" transform="translate(44,50)"/>
<path d="M0 0 C1.67542976 0.28604898 3.34385343 0.61781233 5 1 C4.67 2.65 4.34 4.3 4 6 C2.68 6 1.36 6 0 6 C-0.38218767 4.34385343 -0.71395102 2.67542976 -1 1 C-0.67 0.67 -0.34 0.34 0 0 Z " fill="#BBBDB8" transform="translate(66,104)"/>
<path d="M0 0 C1.32 0.33 2.64 0.66 4 1 C3.01 2.485 3.01 2.485 2 4 C1.67 3.67 1.34 3.34 1 3 C-0.32 5.97 -1.64 8.94 -3 12 C-3.99 11.01 -4.98 10.02 -6 9 C-5.34 8.67 -4.68 8.34 -4 8 C-3.30341637 6.34561387 -2.63903117 4.67745682 -2 3 C-1.34 2.01 -0.68 1.02 0 0 Z " fill="#F8CB53" transform="translate(99,92)"/>
<path d="M0 0 C1.14926266 0.95421808 2.29430541 1.91352045 3.4375 2.875 C4.07558594 3.40867188 4.71367187 3.94234375 5.37109375 4.4921875 C7 6 7 6 8 8 C5.69 8 3.38 8 1 8 C0.67 5.36 0.34 2.72 0 0 Z " fill="#01456A" transform="translate(124,152)"/>
<path d="M0 0 C1.94315614 1.8621913 2.91774219 3.3717411 3.26953125 6.05859375 C3.35665467 10.75533821 2.80356128 14.60381938 1 19 C-0.08573289 16.10471229 0.08976215 13.9223448 0.5625 10.9375 C1.43262325 6.95214345 1.43262325 6.95214345 -1 4 C-0.625 1.8125 -0.625 1.8125 0 0 Z " fill="#927024" transform="translate(88,97)"/>
<path d="M0 0 C3.28788824 3.11016455 5.83735988 6.01618925 8 10 C6.68 10 5.36 10 4 10 C4 8.68 4 7.36 4 6 C2.68 6 1.36 6 0 6 C0 4.02 0 2.04 0 0 Z " fill="#9CBDBA" transform="translate(72,82)"/>
<path d="M0 0 C1.32 0 2.64 0 4 0 C3.88637738 1.4800841 3.75877092 2.95910074 3.625 4.4375 C3.52058594 5.67306641 3.52058594 5.67306641 3.4140625 6.93359375 C3.27742188 7.61550781 3.14078125 8.29742187 3 9 C2.01 9.495 2.01 9.495 1 10 C-0.1577506 6.52674819 -0.06866652 3.63932552 0 0 Z " fill="#102A49" transform="translate(72,108)"/>
<path d="M0 0 C0.87527344 0.07863281 1.75054687 0.15726563 2.65234375 0.23828125 C5.0625 0.6875 5.0625 0.6875 8.0625 2.6875 C2.7825 2.6875 -2.4975 2.6875 -7.9375 2.6875 C-6.08891998 -1.00966003 -3.71611547 -0.36560901 0 0 Z " fill="#005596" transform="translate(95.9375,25.3125)"/>
<path d="M0 0 C1.29227216 4.18142349 0.54613006 6.90275533 -1 11 C-1.99 11.33 -2.98 11.66 -4 12 C-4.65234375 10.265625 -4.65234375 10.265625 -5 8 C-4.00390625 5.859375 -4.00390625 5.859375 -2.5625 3.75 C-2.08941406 3.04359375 -1.61632812 2.3371875 -1.12890625 1.609375 C-0.75636719 1.07828125 -0.38382812 0.5471875 0 0 Z " fill="#7C9FA7" transform="translate(88,108)"/>
<path d="M0 0 C3.3 0 6.6 0 10 0 C8 3 8 3 4.875 3.6875 C3.92625 3.790625 2.9775 3.89375 2 4 C1.34 2.68 0.68 1.36 0 0 Z " fill="#C1EEEF" transform="translate(84,84)"/>
<path d="M0 0 C-3.75 3 -3.75 3 -6 3 C-6 3.66 -6 4.32 -6 5 C-8.64 5 -11.28 5 -14 5 C-12.53698952 2.07397905 -10.58977236 1.90294791 -7.5625 0.8125 C-6.57378906 0.44769531 -5.58507812 0.08289063 -4.56640625 -0.29296875 C-2 -1 -2 -1 0 0 Z " fill="#789292" transform="translate(82,119)"/>
<path d="M0 0 C3.63 0 7.26 0 11 0 C11.33 0.99 11.66 1.98 12 3 C8.04 2.67 4.08 2.34 0 2 C0 1.34 0 0.68 0 0 Z " fill="#2C89B6" transform="translate(72,60)"/>
<path d="M0 0 C1.32 1.32 2.64 2.64 4 4 C3.67 4.66 3.34 5.32 3 6 C2.34 5.67 1.68 5.34 1 5 C0.67 7.64 0.34 10.28 0 13 C-0.33 13 -0.66 13 -1 13 C-1.0272415 11.58344207 -1.04650467 10.16672955 -1.0625 8.75 C-1.07410156 7.96109375 -1.08570312 7.1721875 -1.09765625 6.359375 C-1.00385306 4.09308998 -0.63241063 2.1711105 0 0 Z " fill="#B7F1F7" transform="translate(92,43)"/>
<path d="M0 0 C2.80390987 2.80390987 2.66520791 5.11641171 3 9 C2.5625 11.4375 2.5625 11.4375 2 13 C1.34 13 0.68 13 0 13 C0 8.71 0 4.42 0 0 Z " fill="#879997" transform="translate(117,107)"/>
<path d="M0 0 C2.3125 -0.25 2.3125 -0.25 5 0 C6.8125 2 6.8125 2 8 4 C7.67 4.66 7.34 5.32 7 6 C4.69 5.01 2.38 4.02 0 3 C0 2.01 0 1.02 0 0 Z " fill="#89AEB9" transform="translate(82,100)"/>
<path d="M0 0 C0.99 0 1.98 0 3 0 C3.33 1.32 3.66 2.64 4 4 C4.66 4 5.32 4 6 4 C6 5.65 6 7.3 6 9 C5.34 8.67 4.68 8.34 4 8 C4 7.34 4 6.68 4 6 C3.34 6 2.68 6 2 6 C0 3 0 3 0 0 Z " fill="#815F21" transform="translate(82,92)"/>
<path d="M0 0 C0.99 0.99 1.98 1.98 3 3 C2.66666667 9.33333333 2.66666667 9.33333333 0 12 C0 8.04 0 4.08 0 0 Z " fill="#B78731" transform="translate(92,100)"/>
<path d="M0 0 C0.33 0 0.66 0 1 0 C1.12375 1.03125 1.2475 2.0625 1.375 3.125 C1.93889814 6.62116846 2.78682059 9.68397627 4 13 C2.68 12.67 1.36 12.34 0 12 C0 8.04 0 4.08 0 0 Z " fill="#B9BEB5" transform="translate(120,100)"/>
<path d="M0 0 C0.33 0 0.66 0 1 0 C1.44041451 5.37305699 1.44041451 5.37305699 1 8 C-1.5 10 -1.5 10 -4 11 C-3.52269162 9.5410574 -3.04308958 8.08286504 -2.5625 6.625 C-2.29566406 5.81289062 -2.02882813 5.00078125 -1.75390625 4.1640625 C-1 2 -1 2 0 0 Z " fill="#DFA93B" transform="translate(100,93)"/>
<path d="M0 0 C4 4.625 4 4.625 4 8 C3.01 8 2.02 8 1 8 C0.67 8.66 0.34 9.32 0 10 C0 6.7 0 3.4 0 0 Z " fill="#F0B246" transform="translate(108,88)"/>
<path d="M0 0 C2.74277578 3.19990508 4.6302836 6.00499382 6 10 C5.01 10 4.02 10 3 10 C-0.22265625 4.82421875 -0.22265625 4.82421875 -1 3 C-0.67 2.01 -0.34 1.02 0 0 Z " fill="#E6AF43" transform="translate(78,74)"/>
<path d="M0 0 C0 0.99 0 1.98 0 3 C-2.375 4.0625 -2.375 4.0625 -5 5 C-5.66 4.67 -6.32 4.34 -7 4 C-7 4.66 -7 5.32 -7 6 C-7.66 6 -8.32 6 -9 6 C-9 5.01 -9 4.02 -9 3 C-3.375 0 -3.375 0 0 0 Z " fill="#034F75" transform="translate(56,21)"/>
<path d="M0 0 C0.99 0.33 1.98 0.66 3 1 C1.68 3.31 0.36 5.62 -1 8 C-1.66 8 -2.32 8 -3 8 C-3.75 6.25 -3.75 6.25 -4 4 C-2.0625 1.75 -2.0625 1.75 0 0 Z " fill="#B0CDB8" transform="translate(96,92)"/>
<path d="M0 0 C3.63 0 7.26 0 11 0 C11 0.66 11 1.32 11 2 C11.66 2.33 12.32 2.66 13 3 C11.39504433 2.88557539 9.79101881 2.75805306 8.1875 2.625 C7.29417969 2.55539063 6.40085937 2.48578125 5.48046875 2.4140625 C3 2 3 2 0 0 Z " fill="#022940" transform="translate(53,152)"/>
<path d="M0 0 C0.66 0 1.32 0 2 0 C2 2.97 2 5.94 2 9 C1.01 9 0.02 9 -1 9 C-0.67 6.03 -0.34 3.06 0 0 Z " fill="#E2A944" transform="translate(118,67)"/>
<path d="M0 0 C1.98 1.65 3.96 3.3 6 5 C5.34 5.66 4.68 6.32 4 7 C1.875 6.625 1.875 6.625 0 6 C0 4.02 0 2.04 0 0 Z " fill="#004277" transform="translate(36,42)"/>
<path d="M0 0 C0.33 0 0.66 0 1 0 C0.88570603 1.77155654 0.75816963 3.54226229 0.625 5.3125 C0.52058594 6.79169922 0.52058594 6.79169922 0.4140625 8.30078125 C0 11 0 11 -2 14 C-2.3690205 4.58997722 -2.3690205 4.58997722 0 0 Z " fill="#CA942C" transform="translate(116,106)"/>
<path d="M0 0 C0 1.65 0 3.3 0 5 C-1.98 5 -3.96 5 -6 5 C-3.74193548 0 -3.74193548 0 0 0 Z " fill="#7C8994" transform="translate(132,107)"/>
<path d="M0 0 C1.65 0 3.3 0 5 0 C5.33 0.66 5.66 1.32 6 2 C5.0625 4.125 5.0625 4.125 4 6 C3.01 6 2.02 6 1 6 C0.67 4.02 0.34 2.04 0 0 Z " fill="#CBCCBC" transform="translate(83,106)"/>
<path d="M0 0 C2.97 0.495 2.97 0.495 6 1 C4.35830472 3.02054804 2.69088222 5.02043058 1 7 C0.67 7 0.34 7 0 7 C0 4.69 0 2.38 0 0 Z " fill="#CDCDC9" transform="translate(60,99)"/>
<path d="M0 0 C1.65 0.33 3.3 0.66 5 1 C5.33 1.99 5.66 2.98 6 4 C5.34 4 4.68 4 4 4 C4 3.34 4 2.68 4 2 C3.34 2 2.68 2 2 2 C1.67 2.99 1.34 3.98 1 5 C0.34 4.34 -0.32 3.68 -1 3 C-0.67 2.01 -0.34 1.02 0 0 Z M-2 5 C-1.01 5.495 -1.01 5.495 0 6 C-0.99 6.495 -0.99 6.495 -2 7 C-2 6.34 -2 5.68 -2 5 Z " fill="#F6C54E" transform="translate(102,84)"/>
<path d="M0 0 C1.98 0 3.96 0 6 0 C6.33 1.98 6.66 3.96 7 6 C6.34 6 5.68 6 5 6 C5 5.34 5 4.68 5 4 C4.360625 3.71125 3.72125 3.4225 3.0625 3.125 C1 2 1 2 0 0 Z " fill="#75662A" transform="translate(54,60)"/>
<path d="M0 0 C-0.33 1.32 -0.66 2.64 -1 4 C-3.31 4 -5.62 4 -8 4 C-8 3.34 -8 2.68 -8 2 C-2.25 0 -2.25 0 0 0 Z " fill="#005386" transform="translate(72,116)"/>
<path d="M0 0 C1.37432457 3.81756824 0.67975039 7.07255329 0 11 C-0.33 11 -0.66 11 -1 11 C-1.33 9.02 -1.66 7.04 -2 5 C-2.99 5.495 -2.99 5.495 -4 6 C-2.84826645 3.53199953 -1.95216435 1.95216435 0 0 Z " fill="#CED3CD" transform="translate(122,96)"/>
<path d="M0 0 C0.33 0 0.66 0 1 0 C1 2.64 1 5.28 1 8 C0.67 7.34 0.34 6.68 0 6 C-1.65 6.33 -3.3 6.66 -5 7 C-4.19152271 5.83054208 -3.37810888 4.66449539 -2.5625 3.5 C-2.11003906 2.8503125 -1.65757812 2.200625 -1.19140625 1.53125 C-0.79824219 1.0259375 -0.40507812 0.520625 0 0 Z " fill="#CDC9C2" transform="translate(134,82)"/>
<path d="M0 0 C1.0326802 2.78823655 1.04509293 3.8677274 0.0625 6.75 C-0.288125 7.4925 -0.63875 8.235 -1 9 C-1.66 9 -2.32 9 -3 9 C-3.33 9.66 -3.66 10.32 -4 11 C-3.39301257 6.87248551 -1.96189209 3.6678852 0 0 Z " fill="#F5E57F" transform="translate(123,78)"/>
<path d="M0 0 C2.64 0 5.28 0 8 0 C7.67 0.66 7.34 1.32 7 2 C4.67843403 2.40729228 2.3431213 2.74438677 0 3 C0 2.01 0 1.02 0 0 Z " fill="#779FAA" transform="translate(76,128)"/>
<path d="M0 0 C1.32 0.33 2.64 0.66 4 1 C3.38125 1.7425 2.7625 2.485 2.125 3.25 C0.39562719 5.48801188 -0.86106661 7.43739987 -2 10 C-1.125 2.25 -1.125 2.25 0 0 Z " fill="#879E9E" transform="translate(118,96)"/>
<path d="M0 0 C0.66 0 1.32 0 2 0 C2 2.31 2 4.62 2 7 C1.01 7.33 0.02 7.66 -1 8 C-0.67 5.36 -0.34 2.72 0 0 Z " fill="#C0C0AF" transform="translate(132,92)"/>
<path d="M0 0 C3.375 0.3125 3.375 0.3125 7 1 C7.66 1.99 8.32 2.98 9 4 C5.87709365 3.51421457 3.00419641 3.0013988 0 2 C0 1.34 0 0.68 0 0 Z " fill="#6FCBF1" transform="translate(76,65)"/>
<path d="M0 0 C1.32 0 2.64 0 4 0 C4 2.31 4 4.62 4 7 C2 5.1875 2 5.1875 0 3 C0 2.01 0 1.02 0 0 Z " fill="#146591" transform="translate(104,56)"/>
<path d="M0 0 C0.33 0.66 0.66 1.32 1 2 C1.99 2 2.98 2 4 2 C4 4.64 4 7.28 4 10 C0 4 0 4 0 0 Z " fill="#DF9F33" transform="translate(116,50)"/>
<path d="M0 0 C0.75 1.75 0.75 1.75 1 4 C-0.9375 6.25 -0.9375 6.25 -3 8 C-3.33 7.34 -3.66 6.68 -4 6 C-3.0625 3.875 -3.0625 3.875 -2 2 C-1.34 2 -0.68 2 0 2 C0 1.34 0 0.68 0 0 Z " fill="#EFCD5D" transform="translate(120,87)"/>
<path d="M0 0 C0.66 0.33 1.32 0.66 2 1 C2 3.97 2 6.94 2 10 C1.34 10 0.68 10 0 10 C-0.95024979 6.30458414 -0.95024979 3.69541586 0 0 Z " fill="#7C989D" transform="translate(135,76)"/>
<path d="M0 0 C1.32 0 2.64 0 4 0 C4 2.31 4 4.62 4 7 C0 2.25 0 2.25 0 0 Z " fill="#126BAF" transform="translate(68,56)"/>
<path d="M0 0 C2.46278801 2.46278801 2.99771255 4.70676982 4 8 C2.68 8 1.36 8 0 8 C0 5.36 0 2.72 0 0 Z " fill="#055593" transform="translate(104,28)"/>
<path d="M0 0 C2.64 0.33 5.28 0.66 8 1 C8 1.66 8 2.32 8 3 C5.36 3 2.72 3 0 3 C0 2.01 0 1.02 0 0 Z " fill="#1A5782" transform="translate(76,21)"/>
<path d="M0 0 C0.99 0.33 1.98 0.66 3 1 C1.515 4.465 1.515 4.465 0 8 C-0.98120464 4.94736336 -0.98120464 3.05263664 0 0 Z " fill="#004367" transform="translate(34,148)"/>
<path d="M0 0 C0 0.66 0 1.32 0 2 C-4.01804691 2.84098656 -7.01803543 3.05404945 -11 2 C-11 1.67 -11 1.34 -11 1 C-3.375 0 -3.375 0 0 0 Z " fill="#8D6316" transform="translate(107,135)"/>
<path d="M0 0 C0.598125 0.61875 1.19625 1.2375 1.8125 1.875 C4.00811144 4.13676954 4.00811144 4.13676954 7 6 C5.02 6 3.04 6 1 6 C0.67 4.02 0.34 2.04 0 0 Z " fill="#114568" transform="translate(62,112)"/>
<path d="M0 0 C2.50037734 2.17424117 3.43628586 3.73045798 4 7 C3.01 7.495 3.01 7.495 2 8 C-0.1519437 4.77208445 -0.20086443 3.71599191 0 0 Z " fill="#D49736" transform="translate(74,68)"/>
<path d="M0 0 C1.65 0 3.3 0 5 0 C4.67 1.65 4.34 3.3 4 5 C2.64567325 3.68799596 1.31266518 2.35368596 0 1 C0 0.67 0 0.34 0 0 Z " fill="#73521F" transform="translate(63,68)"/>
<path d="M0 0 C1.32 1.65 2.64 3.3 4 5 C3.67 5.66 3.34 6.32 3 7 C2.01 7 1.02 7 0 7 C0 4.69 0 2.38 0 0 Z " fill="#83661E" transform="translate(60,49)"/>
<path d="M0 0 C1.32 0 2.64 0 4 0 C4 1.98 4 3.96 4 6 C2.62437146 4.71034824 1.29233607 3.37310707 0 2 C0 1.34 0 0.68 0 0 Z " fill="#035599" transform="translate(52,32)"/>
</svg>
